<mxfile host="app.diagrams.net" modified="2024-03-23T19:01:36.662Z" agent="Mozilla/5.0 (Windows NT 10.0; Win64; x64) AppleWebKit/537.36 (KHTML, like Gecko) Chrome/123.0.0.0 Safari/537.36" etag="oJiA9IJ6BBSIp4rK6LTK" version="24.1.0" type="google">
  <diagram name="Page-1" id="NgRQUJmMJ_YtPOraDmq8">
    <mxGraphModel grid="1" page="1" gridSize="10" guides="1" tooltips="1" connect="1" arrows="1" fold="1" pageScale="1" pageWidth="850" pageHeight="1100" math="0" shadow="0">
      <root>
        <mxCell id="0" />
        <mxCell id="1" parent="0" />
        <mxCell id="lW1FaDjBM45YI6n5T3YC-4" value="" style="edgeStyle=orthogonalEdgeStyle;rounded=0;orthogonalLoop=1;jettySize=auto;html=1;" edge="1" parent="1" source="lW1FaDjBM45YI6n5T3YC-1" target="lW1FaDjBM45YI6n5T3YC-2">
          <mxGeometry relative="1" as="geometry">
            <Array as="points">
              <mxPoint x="580" y="161" />
              <mxPoint x="580" y="161" />
            </Array>
          </mxGeometry>
        </mxCell>
        <mxCell id="lW1FaDjBM45YI6n5T3YC-1" value="" style="image;points=[];aspect=fixed;html=1;align=center;shadow=0;dashed=0;image=img/lib/allied_telesis/computer_and_terminals/Personal_Computer.svg;" vertex="1" parent="1">
          <mxGeometry x="620" y="130" width="45.6" height="61.800000000000004" as="geometry" />
        </mxCell>
        <mxCell id="lW1FaDjBM45YI6n5T3YC-3" value="" style="edgeStyle=orthogonalEdgeStyle;rounded=0;orthogonalLoop=1;jettySize=auto;html=1;" edge="1" parent="1" source="lW1FaDjBM45YI6n5T3YC-2" target="lW1FaDjBM45YI6n5T3YC-1">
          <mxGeometry relative="1" as="geometry">
            <Array as="points">
              <mxPoint x="580" y="150" />
              <mxPoint x="580" y="150" />
            </Array>
          </mxGeometry>
        </mxCell>
        <mxCell id="lW1FaDjBM45YI6n5T3YC-11" style="edgeStyle=orthogonalEdgeStyle;rounded=0;orthogonalLoop=1;jettySize=auto;html=1;" edge="1" parent="1" source="lW1FaDjBM45YI6n5T3YC-2">
          <mxGeometry relative="1" as="geometry">
            <mxPoint x="330" y="190" as="targetPoint" />
            <mxPoint x="480" y="171.8" as="sourcePoint" />
            <Array as="points">
              <mxPoint x="330" y="160" />
            </Array>
          </mxGeometry>
        </mxCell>
        <mxCell id="lW1FaDjBM45YI6n5T3YC-2" value="" style="sketch=0;pointerEvents=1;shadow=0;dashed=0;html=1;strokeColor=none;fillColor=#434445;aspect=fixed;labelPosition=center;verticalLabelPosition=bottom;verticalAlign=top;align=center;outlineConnect=0;shape=mxgraph.vvd.web_browser;" vertex="1" parent="1">
          <mxGeometry x="450" y="120.23" width="83.24" height="59.1" as="geometry" />
        </mxCell>
        <mxCell id="lW1FaDjBM45YI6n5T3YC-36" value="" style="edgeStyle=orthogonalEdgeStyle;rounded=0;orthogonalLoop=1;jettySize=auto;html=1;entryX=0.337;entryY=-0.05;entryDx=0;entryDy=0;entryPerimeter=0;" edge="1" parent="1" source="lW1FaDjBM45YI6n5T3YC-5" target="lW1FaDjBM45YI6n5T3YC-17">
          <mxGeometry relative="1" as="geometry">
            <mxPoint x="470" y="320" as="targetPoint" />
          </mxGeometry>
        </mxCell>
        <mxCell id="lW1FaDjBM45YI6n5T3YC-39" style="edgeStyle=orthogonalEdgeStyle;rounded=0;orthogonalLoop=1;jettySize=auto;html=1;" edge="1" parent="1" source="lW1FaDjBM45YI6n5T3YC-5">
          <mxGeometry relative="1" as="geometry">
            <mxPoint x="220" y="320" as="targetPoint" />
          </mxGeometry>
        </mxCell>
        <mxCell id="lW1FaDjBM45YI6n5T3YC-5" value="Load Balancer (HAproxy)" style="rounded=1;whiteSpace=wrap;html=1;" vertex="1" parent="1">
          <mxGeometry x="270" y="191.8" width="140" height="78.2" as="geometry" />
        </mxCell>
        <mxCell id="lW1FaDjBM45YI6n5T3YC-12" value="Browser" style="text;html=1;align=center;verticalAlign=middle;whiteSpace=wrap;rounded=0;" vertex="1" parent="1">
          <mxGeometry x="461.62" y="176.79999999999998" width="60" height="30" as="geometry" />
        </mxCell>
        <mxCell id="lW1FaDjBM45YI6n5T3YC-13" value="User computer" style="text;html=1;align=center;verticalAlign=middle;whiteSpace=wrap;rounded=0;" vertex="1" parent="1">
          <mxGeometry x="612.8" y="206.8" width="60" height="30" as="geometry" />
        </mxCell>
        <mxCell id="lW1FaDjBM45YI6n5T3YC-40" style="edgeStyle=orthogonalEdgeStyle;rounded=0;orthogonalLoop=1;jettySize=auto;html=1;" edge="1" parent="1" source="lW1FaDjBM45YI6n5T3YC-14" target="lW1FaDjBM45YI6n5T3YC-2">
          <mxGeometry relative="1" as="geometry">
            <mxPoint x="150" y="140" as="targetPoint" />
            <Array as="points">
              <mxPoint x="180" y="150" />
            </Array>
          </mxGeometry>
        </mxCell>
        <mxCell id="lW1FaDjBM45YI6n5T3YC-14" value="Web Server (Nginx)" style="whiteSpace=wrap;html=1;rounded=1;" vertex="1" parent="1">
          <mxGeometry x="140" y="320" width="110" height="60" as="geometry" />
        </mxCell>
        <mxCell id="lW1FaDjBM45YI6n5T3YC-31" style="edgeStyle=orthogonalEdgeStyle;rounded=0;orthogonalLoop=1;jettySize=auto;html=1;entryX=0.5;entryY=1;entryDx=0;entryDy=0;" edge="1" parent="1" source="lW1FaDjBM45YI6n5T3YC-17" target="lW1FaDjBM45YI6n5T3YC-12">
          <mxGeometry relative="1" as="geometry">
            <Array as="points">
              <mxPoint x="492" y="310" />
              <mxPoint x="492" y="310" />
            </Array>
          </mxGeometry>
        </mxCell>
        <mxCell id="lW1FaDjBM45YI6n5T3YC-41" value="" style="edgeStyle=orthogonalEdgeStyle;rounded=0;orthogonalLoop=1;jettySize=auto;html=1;" edge="1" parent="1" source="lW1FaDjBM45YI6n5T3YC-17" target="lW1FaDjBM45YI6n5T3YC-19">
          <mxGeometry relative="1" as="geometry">
            <Array as="points">
              <mxPoint x="470" y="420" />
              <mxPoint x="470" y="420" />
            </Array>
          </mxGeometry>
        </mxCell>
        <mxCell id="lW1FaDjBM45YI6n5T3YC-17" value="Application Server" style="whiteSpace=wrap;html=1;rounded=1;" vertex="1" parent="1">
          <mxGeometry x="431.62" y="330" width="120" height="60" as="geometry" />
        </mxCell>
        <mxCell id="lW1FaDjBM45YI6n5T3YC-42" value="" style="edgeStyle=orthogonalEdgeStyle;rounded=0;orthogonalLoop=1;jettySize=auto;html=1;" edge="1" parent="1" source="lW1FaDjBM45YI6n5T3YC-19" target="lW1FaDjBM45YI6n5T3YC-17">
          <mxGeometry relative="1" as="geometry">
            <Array as="points">
              <mxPoint x="492" y="420" />
              <mxPoint x="492" y="420" />
            </Array>
          </mxGeometry>
        </mxCell>
        <mxCell id="lW1FaDjBM45YI6n5T3YC-19" value="Database (MySQL)" style="whiteSpace=wrap;html=1;rounded=1;" vertex="1" parent="1">
          <mxGeometry x="431.62" y="440" width="120" height="70" as="geometry" />
        </mxCell>
        <mxCell id="lW1FaDjBM45YI6n5T3YC-23" value="&lt;h1 style=&quot;margin-top: 0px;&quot;&gt;The design of the three-server web infrastructure&lt;br&gt;&lt;/h1&gt;" style="text;html=1;whiteSpace=wrap;overflow=hidden;rounded=0;" vertex="1" parent="1">
          <mxGeometry x="140" y="40.230000000000004" width="570" height="80" as="geometry" />
        </mxCell>
        <mxCell id="lW1FaDjBM45YI6n5T3YC-33" value="Static Content" style="text;html=1;align=center;verticalAlign=middle;whiteSpace=wrap;rounded=0;" vertex="1" parent="1">
          <mxGeometry x="220" y="215.9" width="60" height="30" as="geometry" />
        </mxCell>
        <mxCell id="lW1FaDjBM45YI6n5T3YC-34" value="Dynamic Content" style="text;html=1;align=center;verticalAlign=middle;whiteSpace=wrap;rounded=0;" vertex="1" parent="1">
          <mxGeometry x="410" y="215.9" width="60" height="30" as="geometry" />
        </mxCell>
        <mxCell id="lW1FaDjBM45YI6n5T3YC-43" value="Response" style="text;html=1;align=center;verticalAlign=middle;whiteSpace=wrap;rounded=0;" vertex="1" parent="1">
          <mxGeometry x="260" y="120.23000000000002" width="60" height="30" as="geometry" />
        </mxCell>
        <mxCell id="lW1FaDjBM45YI6n5T3YC-45" value="Response" style="text;html=1;align=center;verticalAlign=middle;whiteSpace=wrap;rounded=0;" vertex="1" parent="1">
          <mxGeometry x="491.62" y="270" width="60" height="30" as="geometry" />
        </mxCell>
        <mxCell id="lW1FaDjBM45YI6n5T3YC-46" value="Dynamic Content" style="text;html=1;align=center;verticalAlign=middle;whiteSpace=wrap;rounded=0;" vertex="1" parent="1">
          <mxGeometry x="410" y="400" width="60" height="30" as="geometry" />
        </mxCell>
        <mxCell id="lW1FaDjBM45YI6n5T3YC-47" value="Response" style="text;html=1;align=center;verticalAlign=middle;whiteSpace=wrap;rounded=0;" vertex="1" parent="1">
          <mxGeometry x="491.62" y="400" width="60" height="30" as="geometry" />
        </mxCell>
        <mxCell id="lW1FaDjBM45YI6n5T3YC-48" value="www.foobar.com" style="text;html=1;align=center;verticalAlign=middle;whiteSpace=wrap;rounded=0;" vertex="1" parent="1">
          <mxGeometry x="461.62" y="100" width="60" height="30" as="geometry" />
        </mxCell>
        <mxCell id="lW1FaDjBM45YI6n5T3YC-49" value="Request&lt;div&gt;&lt;br&gt;&lt;/div&gt;" style="text;html=1;align=center;verticalAlign=middle;whiteSpace=wrap;rounded=0;" vertex="1" parent="1">
          <mxGeometry x="350" y="160" width="60" height="30" as="geometry" />
        </mxCell>
      </root>
    </mxGraphModel>
  </diagram>
</mxfile>
